REM MD5 d529a3fcb91f44df3990fe8ecf9074d7
FILE "Virtual Kasparov (Europe) (En,Fr,De,Es,It,Nl).bin" BINARY
  TRACK 01 MODE2/2352
    INDEX 01 00:00:00
  TRACK 02 AUDIO
    INDEX 00 47:50:71
    INDEX 01 47:52:71
  TRACK 03 AUDIO
    INDEX 00 51:59:59
    INDEX 01 52:01:59
  TRACK 04 AUDIO
    INDEX 00 54:10:55
    INDEX 01 54:12:55
  TRACK 05 AUDIO
    INDEX 00 57:19:66
    INDEX 01 57:21:66
REM LEADOUT 60:33:04
